HIERARCHY
ROOT Hips
{
	OFFSET 0.000000 83.214638 0.000000
	CHANNELS 6 Xposition Yposition Zposition Xrotation Yrotation Zrotation
	JOINT Pelvis
	{
		OFFSET 0.000000 0.000000 0.000000
		CHANNELS 3 Xrotation Yrotation Zrotation
		JOINT LeftUpLeg
		{
			OFFSET 8.479700 -4.795502 -0.379100
			CHANNELS 3 Xrotation Yrotation Zrotation
			JOINT LeftLeg
			{
				OFFSET 0.024144 -32.555107 0.112900
				CHANNELS 3 Xrotation Yrotation Zrotation
				JOINT LeftFoot
				{
					OFFSET -0.024144 -32.638630 -3.012600
					CHANNELS 3 Xrotation Yrotation Zrotation
					JOINT LeftToeBase
					{
						OFFSET 0.970200 -13.225400 11.864200
						CHANNELS 3 Xrotation Yrotation Zrotation
						End Site
						{
							OFFSET 0.000000 12.319262 0.000000
						}
					}
					JOINT LFootTongue
					{
						OFFSET 1.142400 -1.059800 6.665200
						CHANNELS 3 Xrotation Yrotation Zrotation
						End Site
						{
							OFFSET 0.000000 12.319262 0.000000
						}
					}
				}
				JOINT LeftPantLeg
				{
					OFFSET 0.918482 -16.533964 -2.284700
					CHANNELS 3 Xrotation Yrotation Zrotation
					End Site
					{
						OFFSET 0.350399 24.744368 0.000000
					}
				}
			}
		}
		JOINT RightUpLeg
		{
			OFFSET -8.479700 -4.795502 -0.379100
			CHANNELS 3 Xrotation Yrotation Zrotation
			JOINT RightLeg
			{
				OFFSET -0.023144 -32.555092 0.112900
				CHANNELS 3 Xrotation Yrotation Zrotation
				JOINT RightFoot
				{
					OFFSET 0.023144 -32.638641 -3.012700
					CHANNELS 3 Xrotation Yrotation Zrotation
					JOINT RightToeBase
					{
						OFFSET -0.970200 -13.225400 11.864200
						CHANNELS 3 Xrotation Yrotation Zrotation
						End Site
						{
							OFFSET 0.000000 12.319244 0.000000
						}
					}
					JOINT RFootTongue
					{
						OFFSET -1.142200 -1.059800 6.665200
						CHANNELS 3 Xrotation Yrotation Zrotation
						End Site
						{
							OFFSET 0.000000 12.319243 0.000000
						}
					}
				}
				JOINT RightPantLeg
				{
					OFFSET -0.919482 -16.533978 -2.284800
					CHANNELS 3 Xrotation Yrotation Zrotation
					End Site
					{
						OFFSET -0.350400 24.744419 0.000000
					}
				}
			}
		}
	}
	JOINT Spine
	{
		OFFSET 0.000000 7.722000 1.166200
		CHANNELS 3 Xrotation Yrotation Zrotation
		JOINT Spine1
		{
			OFFSET 0.000000 12.024101 0.248800
			CHANNELS 3 Xrotation Yrotation Zrotation
			JOINT Spine2
			{
				OFFSET 0.000000 11.502998 -0.491200
				CHANNELS 3 Xrotation Yrotation Zrotation
				JOINT Neck
				{
					OFFSET 0.000000 18.430702 -3.123100
					CHANNELS 3 Xrotation Yrotation Zrotation
					JOINT Head
					{
						OFFSET 0.000000 9.051102 1.034000
						CHANNELS 3 Xrotation Yrotation Zrotation
						JOINT HairB
						{
							OFFSET 0.208400 24.786102 24.822300
							CHANNELS 3 Xrotation Yrotation Zrotation
							End Site
							{
								OFFSET 0.000000 32.263779 0.000000
							}
						}
						JOINT HairA
						{
							OFFSET -7.081100 24.428299 23.196600
							CHANNELS 3 Xrotation Yrotation Zrotation
							End Site
							{
								OFFSET 0.000000 32.263779 0.000000
							}
						}
						JOINT Hat
						{
							OFFSET 16.728800 15.048294 -15.439601
							CHANNELS 3 Xrotation Yrotation Zrotation
							End Site
							{
								OFFSET 0.000000 32.263779 0.000000
							}
						}
					}
				}
				JOINT LeftShoulder
				{
					OFFSET 6.197800 13.665199 -4.064700
					CHANNELS 3 Xrotation Yrotation Zrotation
					JOINT LeftArm
					{
						OFFSET 7.778100 -0.187103 -1.709300
						CHANNELS 3 Xrotation Yrotation Zrotation
						JOINT LeftForeArm
						{
							OFFSET 22.049376 0.000000 0.000000
							CHANNELS 3 Xrotation Yrotation Zrotation
							JOINT LeftHand
							{
								OFFSET 23.009392 0.000000 0.000000
								CHANNELS 3 Xrotation Yrotation Zrotation
								JOINT LeftHandThumb1
								{
									OFFSET 3.507191 -2.063065 3.133727
									CHANNELS 3 Xrotation Yrotation Zrotation
									JOINT LeftHandThumb2
									{
										OFFSET 3.101337 -1.790558 1.790558
										CHANNELS 3 Xrotation Yrotation Zrotation
										JOINT LeftHandThumb3
										{
											OFFSET 3.058640 -1.765907 1.765906
											CHANNELS 3 Xrotation Yrotation Zrotation
											End Site
											{
												OFFSET -0.415260 3.926476 -0.049563
											}
										}
									}
								}
								JOINT LeftHandIndex1
								{
									OFFSET 11.334419 -0.901459 3.706815
									CHANNELS 3 Xrotation Yrotation Zrotation
									JOINT LeftHandIndex2
									{
										OFFSET 3.283112 0.000000 0.000000
										CHANNELS 3 Xrotation Yrotation Zrotation
										JOINT LeftHandIndex3
										{
											OFFSET 3.323853 0.000000 0.000000
											CHANNELS 3 Xrotation Yrotation Zrotation
											End Site
											{
												OFFSET -1.135597 3.097809 0.402452
											}
										}
									}
								}
								JOINT LeftHandMiddle1
								{
									OFFSET 11.335861 0.000000 0.000000
									CHANNELS 3 Xrotation Yrotation Zrotation
									JOINT LeftHandMiddle2
									{
										OFFSET 3.410492 0.000000 0.000000
										CHANNELS 3 Xrotation Yrotation Zrotation
										JOINT LeftHandMiddle3
										{
											OFFSET 3.312172 0.000000 0.000000
											CHANNELS 3 Xrotation Yrotation Zrotation
											End Site
											{
												OFFSET -1.150200 3.080154 0.400270
											}
										}
									}
								}
								JOINT LeftHandRing1
								{
									OFFSET 11.514786 -0.013176 -3.003090
									CHANNELS 3 Xrotation Yrotation Zrotation
									JOINT LeftHandRing2
									{
										OFFSET 3.053307 0.000000 0.000000
										CHANNELS 3 Xrotation Yrotation Zrotation
										JOINT LeftHandRing3
										{
											OFFSET 3.295807 0.000000 0.000000
											CHANNELS 3 Xrotation Yrotation Zrotation
											End Site
											{
												OFFSET -1.281006 3.013344 0.375733
											}
										}
									}
								}
								JOINT LeftHandPinky1
								{
									OFFSET 10.518692 -0.960396 -5.730441
									CHANNELS 3 Xrotation Yrotation Zrotation
									JOINT LeftHandPinky2
									{
										OFFSET 2.861649 0.000000 0.000000
										CHANNELS 3 Xrotation Yrotation Zrotation
										JOINT LeftHandPinky3
										{
											OFFSET 2.863380 0.000000 0.000000
											CHANNELS 3 Xrotation Yrotation Zrotation
											End Site
											{
												OFFSET -0.843597 2.711159 0.369971
											}
										}
									}
								}
							}
							JOINT LSleeve
							{
								OFFSET 6.676277 -0.344902 -1.011730
								CHANNELS 3 Xrotation Yrotation Zrotation
								End Site
								{
									OFFSET 0.000000 14.885353 0.000000
								}
							}
						}
					}
				}
				JOINT RightShoulder
				{
					OFFSET -6.197800 13.665199 -4.064700
					CHANNELS 3 Xrotation Yrotation Zrotation
					JOINT RightArm
					{
						OFFSET -7.778100 -0.187103 -1.709300
						CHANNELS 3 Xrotation Yrotation Zrotation
						JOINT RightForeArm
						{
							OFFSET -22.049376 0.000000 0.000000
							CHANNELS 3 Xrotation Yrotation Zrotation
							JOINT RightHand
							{
								OFFSET -23.009392 0.000000 0.000000
								CHANNELS 3 Xrotation Yrotation Zrotation
								JOINT RightHandThumb1
								{
									OFFSET -3.507191 -2.063065 3.133727
									CHANNELS 3 Xrotation Yrotation Zrotation
									JOINT RightHandThumb2
									{
										OFFSET -3.101337 -1.790558 1.790558
										CHANNELS 3 Xrotation Yrotation Zrotation
										JOINT RightHandThumb3
										{
											OFFSET -3.058640 -1.765907 1.765906
											CHANNELS 3 Xrotation Yrotation Zrotation
											End Site
											{
												OFFSET 0.415260 3.926476 -0.049563
											}
										}
									}
								}
								JOINT RightHandIndex1
								{
									OFFSET -11.334419 -0.901459 3.706815
									CHANNELS 3 Xrotation Yrotation Zrotation
									JOINT RightHandIndex2
									{
										OFFSET -3.283112 0.000000 0.000000
										CHANNELS 3 Xrotation Yrotation Zrotation
										JOINT RightHandIndex3
										{
											OFFSET -3.323853 0.000000 0.000000
											CHANNELS 3 Xrotation Yrotation Zrotation
											End Site
											{
												OFFSET 1.135597 3.097809 0.402452
											}
										}
									}
								}
								JOINT RightHandMiddle1
								{
									OFFSET -11.335861 0.000000 0.000000
									CHANNELS 3 Xrotation Yrotation Zrotation
									JOINT RightHandMiddle2
									{
										OFFSET -3.410492 0.000000 0.000000
										CHANNELS 3 Xrotation Yrotation Zrotation
										JOINT RightHandMiddle3
										{
											OFFSET -3.312172 0.000000 0.000000
											CHANNELS 3 Xrotation Yrotation Zrotation
											End Site
											{
												OFFSET 1.150200 3.080154 0.400270
											}
										}
									}
								}
								JOINT RightHandRing1
								{
									OFFSET -11.514786 -0.013176 -3.003090
									CHANNELS 3 Xrotation Yrotation Zrotation
									JOINT RightHandRing2
									{
										OFFSET -3.053307 0.000000 0.000000
										CHANNELS 3 Xrotation Yrotation Zrotation
										JOINT RightHandRing3
										{
											OFFSET -3.295807 0.000000 0.000000
											CHANNELS 3 Xrotation Yrotation Zrotation
											End Site
											{
												OFFSET 1.281006 3.013344 0.375733
											}
										}
									}
								}
								JOINT RightHandPinky1
								{
									OFFSET -10.518692 -0.960396 -5.730441
									CHANNELS 3 Xrotation Yrotation Zrotation
									JOINT RightHandPinky2
									{
										OFFSET -2.861649 0.000000 0.000000
										CHANNELS 3 Xrotation Yrotation Zrotation
										JOINT RightHandPinky3
										{
											OFFSET -2.863380 0.000000 0.000000
											CHANNELS 3 Xrotation Yrotation Zrotation
											End Site
											{
												OFFSET 0.843597 2.711159 0.369971
											}
										}
									}
								}
							}
							JOINT RSleeve
							{
								OFFSET -6.676277 -0.344902 -1.011730
								CHANNELS 3 Xrotation Yrotation Zrotation
								End Site
								{
									OFFSET 0.000000 14.885353 0.000000
								}
							}
						}
					}
				}
				JOINT Backpack
				{
					OFFSET 0.000000 -2.471497 36.677502
					CHANNELS 3 Xrotation Yrotation Zrotation
					End Site
					{
						OFFSET 0.000000 20.427315 0.000000
					}
				}
				JOINT Hood
				{
					OFFSET 0.000000 18.754097 -10.431000
					CHANNELS 3 Xrotation Yrotation Zrotation
					JOINT Hood1
					{
						OFFSET 0.000000 -5.011002 -7.685901
						CHANNELS 3 Xrotation Yrotation Zrotation
						End Site
						{
							OFFSET 0.000000 9.175140 0.000000
						}
					}
				}
				JOINT LHoodieString
				{
					OFFSET 5.250500 16.397697 3.089900
					CHANNELS 3 Xrotation Yrotation Zrotation
					JOINT LHoodieString1
					{
						OFFSET 0.257700 -6.364304 3.694600
						CHANNELS 3 Xrotation Yrotation Zrotation
						JOINT LHoodieString2
						{
							OFFSET 0.000000 -9.643799 2.679100
							CHANNELS 3 Xrotation Yrotation Zrotation
							End Site
							{
								OFFSET 0.000000 10.009018 0.000000
							}
						}
					}
				}
				JOINT RHoodieString
				{
					OFFSET -5.250500 16.397697 3.089900
					CHANNELS 3 Xrotation Yrotation Zrotation
					JOINT RHoodieString1
					{
						OFFSET -0.257700 -6.364304 3.694600
						CHANNELS 3 Xrotation Yrotation Zrotation
						JOINT RHoodieString2
						{
							OFFSET 0.000000 -9.643799 2.679100
							CHANNELS 3 Xrotation Yrotation Zrotation
							End Site
							{
								OFFSET 0.000000 10.009018 0.000000
							}
						}
					}
				}
			}
			JOINT LBackpack_Strap
			{
				OFFSET 15.223200 -7.719803 -6.610900
				CHANNELS 3 Xrotation Yrotation Zrotation
				End Site
				{
					OFFSET 0.000000 16.040596 0.000000
				}
			}
			JOINT RBackpack_Strap
			{
				OFFSET -15.223000 -7.719803 -6.610900
				CHANNELS 3 Xrotation Yrotation Zrotation
				End Site
				{
					OFFSET 0.000000 16.040596 0.000000
				}
			}
		}
	}
	JOINT BoyFacialAnim_Joint
	{
		OFFSET 1.000000 -82.208099 -1.550900
		CHANNELS 3 Xrotation Yrotation Zrotation
		End Site
		{
			OFFSET 0.000000 30.012791 0.000000
		}
	}
}
MOTION
Frames: 4
Frame Time: 0.033333
-4.222286 90.511696 -12.678730 -36.316276 -34.539252 -14.824111 -0.000000 0.000002 0.000002 -100.322645 -14.480199 29.607350 32.923107 -6.121211 -4.210664 44.743449 -21.486718 31.822452 -0.000000 0.000002 -0.000001 -0.000000 0.000002 -0.000001 0.000001 -0.000000 0.000000 -10.869467 -12.239763 -20.016310 50.041186 7.373291 -9.515369 52.844535 26.117330 -6.351640 0.000001 0.000001 -0.000000 0.000001 0.000001 -0.000000 -0.000000 0.000001 0.000001 11.208984 0.314961 -3.113805 20.886377 5.588859 -4.887338 20.953012 5.450556 -4.693731 3.982876 4.195044 -3.158409 18.139254 17.936360 -14.950558 0.000001 -0.000000 0.000000 0.000001 -0.000000 0.000000 0.000001 -0.000000 0.000000 1.029420 0.075520 -9.303804 -45.498708 19.347614 -50.870050 -0.000008 -15.111710 -0.000036 16.637173 -1.520583 24.723977 11.879991 18.225602 1.561540 3.554298 18.057352 6.117090 0.000001 0.000000 0.000001 5.129630 6.655590 -75.219487 9.042280 6.534596 -108.344798 0.000002 -0.000001 -0.000002 5.127758 6.655084 -75.203286 9.044087 6.533975 -108.360985 0.000002 -0.000002 0.000004 5.129624 6.655567 -75.219473 9.042259 6.534589 -108.344805 0.000003 -0.000002 -0.000001 9.080488 7.690864 -75.202623 9.031830 2.450495 -108.211459 -0.000001 0.000001 -0.000002 -0.000001 -0.000003 -0.000002 1.317185 1.367918 11.325694 -67.277814 26.729121 78.273811 0.000013 49.249899 -0.000034 -15.777124 11.077192 8.316225 9.563653 -18.831537 0.592562 21.608972 -27.995574 8.894772 0.000000 0.000000 -0.000002 4.971157 -6.662342 73.429950 9.695524 -6.384497 113.341464 -0.000001 -0.000000 0.000003 4.971140 -6.662333 73.429950 9.695505 -6.384494 113.341443 0.000001 0.000001 -0.000000 4.971151 -6.662315 73.429950 9.695501 -6.384498 113.341457 -0.000000 -0.000000 0.000000 4.971148 -6.662310 73.429957 9.695526 -6.384505 113.341436 -0.000003 -0.000001 0.000000 0.000001 0.000000 0.000001 -0.000001 0.000001 0.000000 -0.000001 0.000001 0.000000 -0.000001 0.000001 0.000000 -0.000001 0.000001 0.000000 -0.000001 0.000001 -0.000000 -0.000001 0.000002 -0.000001 -0.000001 0.000001 0.000000 -0.000001 0.000001 -0.000000 -0.000001 0.000002 -0.000001 0.000000 0.000002 -0.000000 0.000000 0.000002 -0.000000 -0.000000 0.000002 0.000002 
-5.436538 88.052834 -12.208477 -32.018107 -37.420995 -12.946075 -0.000000 -0.000002 -0.000001 -105.721472 -18.856195 29.553539 30.594337 -6.691648 0.241427 45.612519 -25.508929 28.454799 -0.000001 -0.000001 -0.000000 -0.000001 -0.000001 -0.000002 0.000002 -0.000000 -0.000000 -8.208975 -14.772150 -17.324003 40.124780 7.152122 -9.740632 46.524851 23.278526 -5.212277 -0.000000 -0.000001 0.000001 -0.000000 -0.000001 0.000001 -0.000000 0.000002 -0.000002 8.408460 1.481076 -1.430279 16.439809 5.883958 -4.682211 16.447142 5.899373 -4.629927 3.920231 4.317120 -2.150900 18.424143 19.889617 -15.254104 -0.000000 -0.000000 -0.000000 -0.000000 -0.000000 -0.000000 -0.000000 -0.000000 -0.000000 0.984848 0.254358 -9.075737 -42.821615 24.221340 -49.671212 0.000001 -13.786317 -0.000005 15.868758 -0.210410 25.917949 11.879994 18.225603 1.561543 3.554298 18.057352 6.117086 0.000000 0.000000 -0.000001 5.129630 6.655591 -75.219487 9.042280 6.534597 -108.344805 -0.000002 0.000001 -0.000005 5.127760 6.655085 -75.203286 9.044089 6.533974 -108.360979 -0.000000 -0.000000 -0.000005 5.129624 6.655567 -75.219480 9.042258 6.534589 -108.344811 -0.000001 -0.000001 -0.000004 9.080491 7.690867 -75.202623 9.031829 2.450496 -108.211459 -0.000000 -0.000000 0.000001 0.000001 0.000000 0.000002 1.222871 1.331611 11.153741 -68.326501 29.071023 76.869408 -0.000015 49.739729 0.000004 -18.019661 9.419108 3.501276 9.563651 -18.831535 0.592560 21.608967 -27.995579 8.894773 0.000002 0.000000 -0.000003 4.971159 -6.662342 73.429957 9.695524 -6.384498 113.341464 -0.000001 -0.000002 -0.000000 4.971141 -6.662332 73.429943 9.695500 -6.384492 113.341436 -0.000002 0.000001 -0.000002 4.971147 -6.662318 73.429957 9.695500 -6.384496 113.341457 -0.000002 -0.000001 0.000004 4.971147 -6.662308 73.429950 9.695527 -6.384505 113.341436 -0.000000 -0.000001 -0.000000 -0.000001 -0.000001 0.000002 0.000001 -0.000002 0.000001 0.000001 -0.000002 0.000001 0.000001 -0.000002 0.000001 0.000001 -0.000002 0.000001 0.000001 -0.000002 0.000001 0.000001 -0.000000 -0.000000 0.000001 -0.000002 0.000001 0.000001 -0.000002 0.000001 0.000001 -0.000000 -0.000000 -0.000000 -0.000001 0.000000 -0.000000 -0.000001 0.000000 -0.000000 -0.000002 -0.000001 
-6.317631 85.438515 -11.857430 -28.127860 -36.266580 -8.671681 0.000001 0.000004 0.000002 -108.457714 -19.761156 26.795503 33.867855 -8.119609 2.974030 44.487030 -25.321919 13.919629 0.000002 -0.000001 0.000000 0.000002 -0.000001 0.000001 0.000000 0.000000 -0.000000 -7.076692 -16.146827 -15.002908 38.050226 6.365795 -9.936388 35.309769 10.452463 -3.505471 -0.000000 0.000000 -0.000000 -0.000000 0.000000 -0.000000 0.000000 0.000002 -0.000000 7.006647 1.282176 -0.837110 13.973987 5.255112 -5.341606 13.956999 5.317234 -5.329683 3.220677 4.188257 -0.632820 16.618069 21.387083 -15.030859 0.000002 -0.000000 -0.000000 0.000002 -0.000000 -0.000000 0.000002 -0.000000 -0.000000 0.966360 -0.127777 -8.299344 -41.002776 26.875353 -50.457920 -0.000010 -19.213734 -0.000009 14.990460 -0.858819 25.970118 11.879992 18.225597 1.561536 3.554297 18.057354 6.117090 -0.000000 -0.000001 -0.000001 5.129630 6.655588 -75.219487 9.042279 6.534592 -108.344798 -0.000001 -0.000003 -0.000001 5.127757 6.655084 -75.203292 9.044087 6.533975 -108.360985 0.000002 0.000002 -0.000003 5.129623 6.655564 -75.219480 9.042256 6.534594 -108.344805 -0.000002 -0.000004 -0.000003 9.080488 7.690861 -75.202623 9.031832 2.450497 -108.211459 -0.000002 -0.000001 -0.000000 -0.000000 -0.000002 -0.000002 1.135589 1.330271 10.985078 -67.678985 30.575683 71.829104 -0.000050 51.074109 0.000029 -23.311656 12.071130 -3.544330 9.563653 -18.831538 0.592560 21.608972 -27.995578 8.894768 -0.000001 -0.000001 -0.000001 4.971154 -6.662346 73.429950 9.695523 -6.384495 113.341464 -0.000003 0.000000 0.000004 4.971141 -6.662336 73.429950 9.695505 -6.384493 113.341443 0.000002 0.000001 -0.000000 4.971147 -6.662318 73.429950 9.695500 -6.384498 113.341457 0.000004 0.000001 -0.000001 4.971144 -6.662308 73.429950 9.695529 -6.384501 113.341436 0.000001 0.000000 -0.000001 0.000002 -0.000000 0.000001 0.000001 0.000001 0.000000 0.000001 0.000001 0.000000 0.000001 0.000001 0.000000 0.000001 0.000001 0.000000 0.000001 0.000001 0.000000 0.000001 0.000001 -0.000000 0.000001 0.000001 0.000000 0.000001 0.000001 0.000000 0.000001 0.000001 -0.000000 -0.000000 0.000001 0.000000 -0.000000 0.000001 0.000000 0.000001 0.000004 0.000002 
-7.011883 82.349335 -12.337933 -26.137594 -33.019091 -4.101607 -0.000002 0.000001 0.000001 -103.274660 -15.959292 25.188790 34.805882 -9.468947 2.490573 44.986109 -21.611325 -2.639702 -0.000000 0.000003 -0.000001 -0.000000 0.000003 -0.000003 -0.000001 -0.000002 -0.000000 -10.362144 -16.759070 -14.660031 48.015926 -5.000147 -10.078016 10.226942 -0.221224 -8.396336 -0.000000 0.000001 -0.000000 -0.000000 0.000001 -0.000000 -0.000000 0.000000 0.000001 6.858953 0.751004 -0.917061 13.594254 4.453533 -6.762204 13.574528 4.543312 -6.750559 2.264701 3.788023 0.741684 13.444103 21.357105 -13.785533 -0.000000 0.000000 -0.000000 -0.000000 0.000000 -0.000000 -0.000000 0.000000 -0.000000 0.978581 -0.784522 -7.546614 -38.709721 27.017623 -52.997279 0.000012 -33.363306 0.000026 14.969587 -3.357624 25.149754 11.879998 18.225598 1.561539 3.554294 18.057355 6.117088 0.000000 -0.000000 0.000003 5.129629 6.655589 -75.219487 9.042282 6.534594 -108.344798 -0.000004 0.000001 -0.000003 5.127760 6.655087 -75.203292 9.044091 6.533975 -108.360979 -0.000001 0.000000 0.000002 5.129624 6.655567 -75.219480 9.042261 6.534588 -108.344805 -0.000000 0.000001 -0.000002 9.080491 7.690864 -75.202623 9.031828 2.450495 -108.211459 -0.000000 0.000001 -0.000002 0.000000 0.000001 0.000000 1.125281 1.323496 10.966511 -65.336046 29.046592 64.082488 -0.000043 56.052248 0.000032 -28.195538 15.304659 -9.318664 9.563656 -18.831537 0.592560 21.608975 -27.995583 8.894772 0.000001 0.000000 -0.000000 4.971160 -6.662339 73.429943 9.695524 -6.384492 113.341457 -0.000000 -0.000001 0.000003 4.971146 -6.662333 73.429950 9.695503 -6.384492 113.341443 -0.000000 0.000001 0.000003 4.971151 -6.662314 73.429943 9.695500 -6.384497 113.341457 -0.000002 -0.000003 0.000007 4.971148 -6.662308 73.429950 9.695530 -6.384504 113.341443 -0.000001 0.000003 -0.000003 0.000000 0.000001 -0.000000 -0.000000 0.000000 0.000000 -0.000000 0.000000 0.000000 -0.000000 0.000000 0.000000 -0.000000 0.000000 0.000000 -0.000000 0.000000 0.000000 0.000000 -0.000002 0.000000 -0.000000 0.000000 0.000000 -0.000000 0.000000 0.000000 0.000000 -0.000002 0.000000 0.000000 0.000000 -0.000000 0.000000 0.000000 -0.000000 -0.000002 0.000001 0.000001 
